# xmcd CD database file
#
# Track frame offsets:
#	150
#	13640
#	34120
#	53658
#	69728
#	86617
#	99314
#	118117
#	133425
#	149807
#	165568
#	179438
#	195128
#	214399
#
# Disc length: 3081 seconds
#
# Revision: 0
# Processed by: cddbd v1.4PL0 Copyright (c) Steve Scherf et al.
# Submitted via: Feurio! 1.65 - http://www.feurio.com
#
DISCID=cd0c070e
DTITLE=Modena City Ramblers - Fuori Campo (Settembre1999)
DYEAR=1900
DGENRE=
TTITLE0=Etnica Danza
TTITLE1=Fuori Campo
TTITLE2=Natale a San Cristobal
TTITLE3=La Roda
TTITLE4=Celtica Parchanka
TTITLE5=Il matto
TTITLE6=Coi piedi per terra
TTITLE7=Il vagabondo stanco
TTITLE8=La rumba
TTITLE9=Suad
TTITLE10=Movimento
TTITLE11=Lo straniero pazzo
TTITLE12=Figli dell'officina
TTITLE13=L'uomo delle pianure
EXTD=
EXTT0=
EXTT1=
EXTT2=
EXTT3=
EXTT4=
EXTT5=
EXTT6=
EXTT7=
EXTT8=
EXTT9=
EXTT10=
EXTT11=
EXTT12=
EXTT13=
PLAYORDER=
